<?xml version="1.0" encoding="utf-8"?>
<!-- Generator: Adobe Illustrator 16.0.0, SVG Export Plug-In . SVG Version: 6.00 Build 0)  -->
<!DOCTYPE svg PUBLIC "-//W3C//DTD SVG 1.1//EN" "http://www.w3.org/Graphics/SVG/1.1/DTD/svg11.dtd">
<svg version="1.1" xmlns="http://www.w3.org/2000/svg" xmlns:xlink="http://www.w3.org/1999/xlink" x="0px" y="0px" width="661px"
	 height="625.205px" viewBox="1763.587 -113.205 661 625.205" enable-background="new 1763.587 -113.205 661 625.205"
	 xml:space="preserve">
<g id="hat">
	<g id="Canvas_2_" transform="translate(-277 696)">
		<g id="logo-training-center-blue-512_2_">
			<g id="Rectangle_2_">
				<g transform="translate(277 -696)">
					<path id="path0_fill_2_" fill="#267DBD" d="M2191.51-626.004c0-38.659,31.341-70,70-70h372c38.66,0,70,31.341,70,70v372
						c0,38.66-31.34,70-70,70h-372c-38.659,0-70-31.34-70-70V-626.004z"/>
				</g>
			</g>
			<g id="Union_2_">
				<g transform="translate(327 -620)">
					<path id="path1_fill_2_" fill="#F2F2F2" d="M2472.45-620.004h66.707v75.755h72.945v33.052h-72.945v124.408
						c0,12.057,1.271,22.37,3.812,30.936c2.859,8.25,6.513,15.072,10.959,20.465c4.765,5.078,10.165,8.885,16.2,11.424
						s12.388,3.809,19.059,3.809c9.529,0,18.741-1.428,27.636-4.285c8.895-3.172,16.359-6.504,22.395-9.994l14.294,30.938
						c-9.529,4.758-20.487,8.725-32.877,11.896c-12.069,3.174-24.141,4.76-36.212,4.76c-35.894,0-63.53-8.883-82.907-26.652
						c-19.376-17.77-29.064-42.201-29.064-73.295v-124.408h-45.644v-33.052h45.644V-620.004z M2426.806-293.054H2241.51v33.051
						h185.296V-293.054z"/>
				</g>
			</g>
		</g>
	</g>
	
		<image overflow="visible" width="1280" height="890" xlink:href="Santa_hat.svg.png"  transform="matrix(0.2497 -0.0949 0.093 0.2447 1718.6785 -37.2717)">
	</image>
</g>
<g id="rigth_1_">
</g>
<g id="left">
</g>
</svg>
